<?xml version="1.0" encoding="UTF-8" standalone="no"?>
<svg width="200" height="50" viewBox="0 0 200 50" fill="none" xmlns="http://www.w3.org/2000/svg">
  <path d="M56 14.5H60.464V29.5H67.424V33.5H56V14.5Z" fill="#4F46E5"/>
  <path d="M69.4297 14.5H77.9977C79.8457 14.5 81.3737 15.028 82.5817 16.084C83.7897 17.14 84.3937 18.58 84.3937 20.404V20.548C84.3937 22.06 83.9777 23.284 83.1457 24.22C82.3377 25.132 81.3017 25.732 80.0377 26.02L85.0217 33.5H79.8697L75.6337 26.98H73.8937V33.5H69.4297V14.5ZM77.6937 22.98C78.4057 22.98 78.9537 22.804 79.3377 22.452C79.7217 22.076 79.9137 21.58 79.9137 20.964V20.82C79.9137 20.18 79.7217 19.684 79.3377 19.332C78.9537 18.98 78.4057 18.804 77.6937 18.804H73.8937V22.98H77.6937Z" fill="#4F46E5"/>
  <path d="M88.3711 14.5H97.2391C99.0871 14.5 100.615 15.016 101.823 16.048C103.031 17.08 103.635 18.484 103.635 20.26V20.404C103.635 21.94 103.211 23.188 102.363 24.148C101.539 25.084 100.435 25.72 99.0511 26.056L104.263 33.5H99.1111L94.7271 26.908H92.8351V33.5H88.3711V14.5ZM96.9351 22.908C97.6471 22.908 98.1951 22.744 98.5791 22.416C98.9631 22.064 99.1551 21.592 99.1551 21V20.856C99.1551 20.24 98.9631 19.768 98.5791 19.44C98.1951 19.112 97.6471 18.948 96.9351 18.948H92.8351V22.908H96.9351Z" fill="#4F46E5"/>
  <path d="M106.654 14.5H111.19L117.67 25.096V14.5H122.014V33.5H117.814L110.998 22.44V33.5H106.654V14.5Z" fill="#4F46E5"/>
  <path d="M132.308 14.38H136.484L143.18 33.5H138.5L137.316 30.036H131.404L130.22 33.5H125.612L132.308 14.38ZM136.196 25.984L134.36 20.98L132.524 25.984H136.196Z" fill="#4F46E5"/>
  <path d="M145.174 14.5H149.638V29.5H156.598V33.5H145.174V14.5Z" fill="#4F46E5"/>
  <path d="M169.29 14.5H173.826V33.5H169.29V14.5Z" fill="#4F46E5"/>
  <path d="M177.305 14.5H181.841V29.5H188.801V33.5H177.305V14.5Z" fill="#4F46E5"/>
  <path d="M190.808 14.5H204.184V18.564H195.272V21.88H203.376V25.944H195.272V29.436H204.304V33.5H190.808V14.5Z" fill="#4F46E5"/>
  
  <path d="M8 12C8 9.79086 9.79086 8 12 8H38C40.2091 8 42 9.79086 42 12V26C42 28.2091 40.2091 30 38 30H30L24 36V30H12C9.79086 30 8 28.2091 8 26V12Z" fill="#4F46E5"/>
  <circle cx="17" cy="19" r="2.5" fill="white"/>
  <circle cx="25" cy="19" r="2.5" fill="white"/>
  <circle cx="33" cy="19" r="2.5" fill="white"/>
</svg>
